<svg id="logo" xmlns="http://www.w3.org/2000/svg" width="189.247" height="31.702" viewBox="0 0 189.247 31.702">
  <path id="Pfad_2" data-name="Pfad 2" d="M43.535,9.862h1.993V25.285H43.535Zm15.578,10.02v.629H50.249a3.688,3.688,0,0,0,3.777,3.2,4.266,4.266,0,0,0,3.3-1.626L58.536,23.4a6.168,6.168,0,0,1-4.563,2.151,5.613,5.613,0,0,1-5.717-5.771c0-3.253,2.15-5.77,5.455-5.77C56.806,14.059,59.113,16.367,59.113,19.882Zm-1.941-1.049a3.469,3.469,0,0,0-6.871,0Zm19.67,6.452V18.2c0-2.675-1.574-4.144-3.882-4.249A3.576,3.576,0,0,0,69.656,16a3.33,3.33,0,0,0-3.409-2.046A3.441,3.441,0,0,0,63.152,15.9V14.269H61.316V25.233H63.31V17.626a3,3,0,0,1,2.413-1.784c1.469,0,2.413.892,2.413,2.675v6.767h1.993V17.679a2.88,2.88,0,0,1,2.308-1.836c1.469,0,2.413.892,2.413,2.675v6.767ZM90.375,19.83a5.666,5.666,0,1,1-11.33,0,5.666,5.666,0,1,1,11.33,0Zm-1.993,0a3.68,3.68,0,1,0-7.343,0,3.68,3.68,0,1,0,7.343,0Zm13.69,5.456V18.2a4.142,4.142,0,0,0-4.144-4.249,3.926,3.926,0,0,0-3.409,1.836V14.269H92.683V25.233h1.993v-7.5a3.57,3.57,0,0,1,2.78-1.836,2.438,2.438,0,0,1,2.623,2.675v6.715Zm4.248-2.413a1.354,1.354,0,0,1,1.364,1.364,1.363,1.363,0,1,1-2.727,0A1.354,1.354,0,0,1,106.32,22.872Zm19.67,2.413V18.2a3.863,3.863,0,0,0-3.934-4.249,3.575,3.575,0,0,0-3.3,2.046,3.331,3.331,0,0,0-3.41-2.046,3.442,3.442,0,0,0-3.1,1.941V14.269h-1.835V25.128h1.94V17.521a3,3,0,0,1,2.413-1.784c1.469,0,2.413.892,2.413,2.675v6.82h1.993V17.626a3,3,0,0,1,2.413-1.784c1.469,0,2.413.892,2.413,2.675v6.767Zm12.169-7.239v7.239h-1.784V23.659A4.549,4.549,0,0,1,132.7,25.5a3.892,3.892,0,0,1-4.092-3.777c0-2.151,1.836-3.672,4.406-3.672a6.081,6.081,0,0,1,3.3.944v-.629a2.53,2.53,0,0,0-2.78-2.623,7.59,7.59,0,0,0-3.3.944L129.4,15a7.825,7.825,0,0,1,4.091-1.154C136.585,14.059,138.159,16.052,138.159,18.046Zm-2.046,4.092V20.617a5.218,5.218,0,0,0-2.832-.787c-1.679,0-2.78.839-2.78,1.993,0,1.469,1.311,1.993,2.517,1.993A4.1,4.1,0,0,0,136.113,22.138Zm10.8-6.085.787-1.784a11.752,11.752,0,0,0-1.573-.315,3.733,3.733,0,0,0-3.1,1.993V14.269H141.2V25.18h1.993v-7.5a2.958,2.958,0,0,1,2.518-1.836A3.226,3.226,0,0,1,146.918,16.052Zm4.773,3.934v5.3H149.7V9.862h1.993V19.2l4.721-4.826h2.623l-5.141,5.141,5.56,5.771h-2.78Zm19.04.525v-.629c0-3.515-2.255-5.823-5.4-5.875-3.3,0-5.455,2.518-5.455,5.77a5.613,5.613,0,0,0,5.717,5.771,6.17,6.17,0,0,0,4.564-2.151l-1.207-1.311a4.266,4.266,0,0,1-3.3,1.626,3.688,3.688,0,0,1-3.777-3.2Zm-5.35-4.669a3.305,3.305,0,0,1,3.41,2.99H161.92A3.279,3.279,0,0,1,165.381,15.843Zm7.816-4.826h1.993v3.357H178.6v1.784H175.19v5.928a1.482,1.482,0,0,0,1.626,1.679,2.212,2.212,0,0,0,1.206-.472l.787,1.626a4.515,4.515,0,0,1-2.308.682,3.225,3.225,0,0,1-3.3-3.462Zm11.7,12.748a4.2,4.2,0,0,1-3.3-1.784l-1.469,1.259a6.051,6.051,0,0,0,4.721,2.308c2.151,0,4.406-1.154,4.406-3.2,0-2.256-1.731-2.99-3.829-3.462-1.836-.367-2.675-.839-2.675-1.679,0-.682.734-1.364,2.1-1.364a4.081,4.081,0,0,1,2.78,1.207l1.311-1.364a5.7,5.7,0,0,0-4.091-1.679c-2.36,0-3.986,1.521-3.986,3.148,0,2.1,1.573,2.99,3.986,3.462,1.679.315,2.465.839,2.465,1.784C187.306,23.292,186.047,23.764,184.893,23.764Z" fill="#e8e7e6" fill-rule="evenodd"/>
  <path id="Pfad_3" data-name="Pfad 3" d="M31.7,0H27.181V4.521H31.7Z" fill="#3cbf30"/>
  <path id="Pfad_4" data-name="Pfad 4" d="M18.138,4.521H9.043L0,13.564H18.086V31.65l9.043-9.043V4.521Z" fill="#f9ef00"/>
  <path id="Pfad_5" data-name="Pfad 5" d="M.052,13.564V31.7H18.137V13.564Z" fill="#f7fb2b"/>
</svg>
